<svg xmlns="http://www.w3.org/2000/svg" xmlns:xlink="http://www.w3.org/1999/xlink" width="1200" height="711.3"><rect width="1200" height="711.3" rx="5" ry="5" class="a"/><svg y="0%" x="0%"><circle cx="20" cy="20" r="6" fill="#ff5f58"/><circle cx="40" cy="20" r="6" fill="#ffbd2e"/><circle cx="60" cy="20" r="6" fill="#18c132"/></svg><svg height="651.3" viewBox="0 0 116 65.13" width="1160" x="15" xmlns="http://www.w3.org/2000/svg" xmlns:xlink="http://www.w3.org/1999/xlink" y="50"><style>@keyframes m{0%{transform:translateX(0)}4.8%{transform:translateX(-116px)}13.2%{transform:translateX(-232px)}13.5%{transform:translateX(-348px)}25.3%{transform:translateX(-464px)}33.8%{transform:translateX(-696px)}34%{transform:translateX(-812px)}45.9%{transform:translateX(-928px)}54.7%{transform:translateX(-1044px)}55%{transform:translateX(-1160px)}66.8%{transform:translateX(-1276px)}79.2%{transform:translateX(-1508px)}79.6%{transform:translateX(-1624px)}91.4%{transform:translateX(-1740px)}to{transform:translateX(-1972px)}}.a{fill:#282d35}.f,.g{font-weight:700}.f{fill:#a8cc8c;white-space:pre}.g{fill:#b9c0cb}.g,.h,.i,.j{white-space:pre}.h{fill:#71bef2;font-weight:700}.i,.j{fill:#a8cc8c}.j{fill:#b9c0cb}</style><g font-family="Monaco,Consolas,Menlo,'Bitstream Vera Sans Mono','Powerline Symbols',monospace" font-size="1.67"><defs><symbol id="1"><text y="1.67" class="f">❯</text><text x="2.004" y="1.67" class="g">job</text><text x="6.012" y="1.67" class="g">workers</text><text x="14.028" y="1.67" class="g">|</text><text x="16.032" y="1.67" class="g">jq</text><text x="19.038" y="1.67" class="g">-c</text><text x="22.044" y="1.67" class="g">&apos;.[]</text><text x="27.054" y="1.67" class="g">|</text><text x="29.058" y="1.67" class="g">{host,</text><text x="36.072" y="1.67" class="g">gpu,</text><text x="41.082" y="1.67" class="g">free_vram_gb,</text><text x="55.11" y="1.67" class="g">tags:</text><text x="61.122" y="1.67" class="g">(.tags[-2:])}&apos;</text></symbol><symbol id="2"><text y="1.67" class="g">{</text><text x="1.002" y="1.67" class="h">&quot;host&quot;</text><text x="7.014" y="1.67" class="g">:</text><text x="8.016" y="1.67" class="i">&quot;workstation&quot;</text><text x="21.042" y="1.67" class="g">,</text><text x="22.044" y="1.67" class="h">&quot;gpu&quot;</text><text x="27.054" y="1.67" class="g">:</text><text x="28.056" y="1.67" class="j">true</text><text x="32.064" y="1.67" class="g">,</text><text x="33.066" y="1.67" class="h">&quot;free_vram_gb&quot;</text><text x="47.094" y="1.67" class="g">:</text><text x="48.096" y="1.67" class="j">11.3</text><text x="52.104" y="1.67" class="g">,</text><text x="53.106" y="1.67" class="h">&quot;tags&quot;</text><text x="59.118" y="1.67" class="g">:[</text><text x="61.122" y="1.67" class="i">&quot;wsl&quot;</text><text x="66.132" y="1.67" class="g">,</text><text x="67.134" y="1.67" class="i">&quot;always-on&quot;</text><text x="78.156" y="1.67" class="g">]}</text></symbol><symbol id="3"><text y="1.67" class="f">❯</text><text x="2.004" y="1.67" class="g">job</text><text x="6.012" y="1.67" class="g">submit</text><text x="13.026" y="1.67" class="g">-p</text><text x="16.032" y="1.67" class="g">project-c</text><text x="26.052" y="1.67" class="g">--gpu</text><text x="32.064" y="1.67" class="g">--vram-required</text><text x="48.096" y="1.67" class="g">8</text><text x="50.1" y="1.67" class="g">--explain</text><text x="60.12" y="1.67" class="g">--</text><text x="63.126" y="1.67" class="g">python</text><text x="70.14" y="1.67" class="g">train.py</text></symbol><symbol id="4"><text y="1.67" class="j">resolved</text><text x="9.018" y="1.67" class="j">config</text><text x="16.032" y="1.67" class="j">for</text><text x="20.04" y="1.67" class="j">project</text><text x="28.056" y="1.67" class="j">project-c:</text></symbol><symbol id="5"><text x="2.004" y="1.67" class="j">priority</text><text x="22.044" y="1.67" class="j">60</text><text x="48.096" y="1.67" class="j">[source:</text><text x="57.114" y="1.67" class="j">project</text><text x="65.13" y="1.67" class="j">default]</text></symbol><symbol id="6"><text x="2.004" y="1.67" class="j">host_pin</text><text x="22.044" y="1.67" class="j">any</text><text x="48.096" y="1.67" class="j">[source:</text><text x="57.114" y="1.67" class="j">global]</text></symbol><symbol id="7"><text x="2.004" y="1.67" class="j">max_wall_s</text><text x="22.044" y="1.67" class="j">null</text><text x="48.096" y="1.67" class="j">[source:</text><text x="57.114" y="1.67" class="j">global]</text></symbol><symbol id="8"><text x="2.004" y="1.67" class="j">idle_timeout_s</text><text x="22.044" y="1.67" class="j">null</text><text x="48.096" y="1.67" class="j">[source:</text><text x="57.114" y="1.67" class="j">global]</text></symbol><symbol id="9"><text x="2.004" y="1.67" class="j">checkpoint_grace_s</text><text x="22.044" y="1.67" class="j">60</text><text x="25.05" y="1.67" class="j">(0h1m0s)</text><text x="48.096" y="1.67" class="j">[source:</text><text x="57.114" y="1.67" class="j">project</text><text x="65.13" y="1.67" class="j">default]</text></symbol><symbol id="10"><text x="2.004" y="1.67" class="j">preemptible</text><text x="22.044" y="1.67" class="j">true</text><text x="48.096" y="1.67" class="j">[source:</text><text x="57.114" y="1.67" class="j">project</text><text x="65.13" y="1.67" class="j">default]</text></symbol><symbol id="11"><text x="2.004" y="1.67" class="j">requires</text><text x="22.044" y="1.67" class="j">gpu=true</text><text x="48.096" y="1.67" class="j">[source:</text><text x="57.114" y="1.67" class="j">cli</text><text x="61.122" y="1.67" class="j">flag]</text></symbol><symbol id="12"><text x="2.004" y="1.67" class="j">escalate_to_arc</text><text x="22.044" y="1.67" class="j">false</text><text x="48.096" y="1.67" class="j">[source:</text><text x="57.114" y="1.67" class="j">global]</text></symbol><symbol id="13"><text x="2.004" y="1.67" class="j">submit_warning:</text><text x="18.036" y="1.67" class="j">none</text></symbol><symbol id="14"><text y="1.67" class="f">❯</text><text x="2.004" y="1.67" class="g">job</text><text x="6.012" y="1.67" class="g">submit</text><text x="13.026" y="1.67" class="g">-p</text><text x="16.032" y="1.67" class="g">project-c</text><text x="26.052" y="1.67" class="g">--gpu</text><text x="32.064" y="1.67" class="g">--vram-required</text><text x="48.096" y="1.67" class="g">8</text><text x="50.1" y="1.67" class="g">--</text><text x="53.106" y="1.67" class="g">python</text><text x="60.12" y="1.67" class="g">train.py</text><text x="69.138" y="1.67" class="g">2&gt;/dev/null</text><text x="81.162" y="1.67" class="g">|</text><text x="83.166" y="1.67" class="g">jq</text><text x="86.172" y="1.67" class="g">-c</text><text x="89.178" y="1.67" class="g">&apos;{id,vram_gb,priority}&apos;</text></symbol><symbol id="15"><text y="1.67" class="g">{</text><text x="1.002" y="1.67" class="h">&quot;id&quot;</text><text x="5.01" y="1.67" class="g">:</text><text x="6.012" y="1.67" class="j">1</text><text x="7.014" y="1.67" class="g">,</text><text x="8.016" y="1.67" class="h">&quot;vram_gb&quot;</text><text x="17.034" y="1.67" class="g">:</text><text x="18.036" y="1.67" class="j">8.0</text><text x="21.042" y="1.67" class="g">,</text><text x="22.044" y="1.67" class="h">&quot;priority&quot;</text><text x="32.064" y="1.67" class="g">:</text><text x="33.066" y="1.67" class="j">60</text><text x="35.07" y="1.67" class="g">}</text></symbol><symbol id="16"><text y="1.67" class="f">❯</text><text x="2.004" y="1.67" class="g">job</text><text x="6.012" y="1.67" class="g">wait</text><text x="11.022" y="1.67" class="g">1</text></symbol><symbol id="17"><text y="1.67" class="j">loading</text><text x="8.016" y="1.67" class="j">dataset...</text></symbol><symbol id="18"><text y="1.67" class="j">epoch</text><text x="6.012" y="1.67" class="j">1/2</text><text x="11.022" y="1.67" class="j">loss=0.42</text></symbol><symbol id="19"><text y="1.67" class="j">epoch</text><text x="6.012" y="1.67" class="j">2/2</text><text x="11.022" y="1.67" class="j">loss=0.19</text></symbol><symbol id="20"><text y="1.67" class="j">checkpoint</text><text x="11.022" y="1.67" class="j">saved</text><text x="17.034" y="1.67" class="j">-&gt;</text><text x="20.04" y="1.67" class="j">ckpt.pt</text></symbol><symbol id="21"><text y="1.67" class="j">[terminal]</text><text x="11.022" y="1.67" class="j">{&apos;state&apos;:</text><text x="21.042" y="1.67" class="j">&apos;completed&apos;,</text><text x="34.068" y="1.67" class="j">&apos;exit_code&apos;:</text><text x="47.094" y="1.67" class="j">0}</text></symbol><symbol id="22"><text y="1.67" class="f">❯</text><text x="2.004" y="1.67" class="g">job</text><text x="6.012" y="1.67" class="g">audit</text><text x="12.024" y="1.67" class="g">--since</text><text x="20.04" y="1.67" class="g">24h</text><text x="24.048" y="1.67" class="g">|</text><text x="26.052" y="1.67" class="g">tail</text><text x="31.062" y="1.67" class="g">-6</text><text x="34.068" y="1.67" class="g">|</text><text x="36.072" y="1.67" class="g">cut</text><text x="40.08" y="1.67" class="g">-c1-114</text></symbol><symbol id="23"><text y="1.67" class="j">2026-06-01</text><text x="11.022" y="1.67" class="j">01:58:45</text><text x="21.042" y="1.67" class="j">worker_registered</text><text x="50.1" y="1.67" class="j">-</text><text x="53.106" y="1.67" class="j">-</text><text x="69.138" y="1.67" class="j">host=workstation</text><text x="86.172" y="1.67" class="j">host_aliases=[&apos;any&apos;,</text><text x="107.214" y="1.67" class="j">&apos;any-gp</text></symbol><symbol id="24"><text y="1.67" class="j">2026-06-01</text><text x="11.022" y="1.67" class="j">01:58:57</text><text x="21.042" y="1.67" class="j">job_submitted</text><text x="49.098" y="1.67" class="j">#1</text><text x="53.106" y="1.67" class="j">project-c</text><text x="69.138" y="1.67" class="j">priority=60</text><text x="81.162" y="1.67" class="j">host_pin=any</text><text x="94.188" y="1.67" class="j">preemptible=True</text><text x="111.222" y="1.67" class="j">war</text></symbol><symbol id="25"><text y="1.67" class="j">2026-06-01</text><text x="11.022" y="1.67" class="j">01:58:57</text><text x="21.042" y="1.67" class="j">job_dispatched</text><text x="49.098" y="1.67" class="j">#1</text><text x="53.106" y="1.67" class="j">project-c</text><text x="69.138" y="1.67" class="j">worker=workstation</text><text x="88.176" y="1.67" class="j">queue_wait_s=0.01</text></symbol><symbol id="26"><text y="1.67" class="j">2026-06-01</text><text x="11.022" y="1.67" class="j">01:58:57</text><text x="21.042" y="1.67" class="j">job_started</text><text x="49.098" y="1.67" class="j">#1</text><text x="53.106" y="1.67" class="j">project-c</text><text x="69.138" y="1.67" class="j">worker=workstation</text></symbol><symbol id="27"><text y="1.67" class="j">2026-06-01</text><text x="11.022" y="1.67" class="j">01:59:00</text><text x="21.042" y="1.67" class="j">job_completed</text><text x="49.098" y="1.67" class="j">#1</text><text x="53.106" y="1.67" class="j">project-c</text><text x="69.138" y="1.67" class="j">final_state=completed</text><text x="91.182" y="1.67" class="j">exit_code=0</text><text x="103.206" y="1.67" class="j">wall_s=3.07</text></symbol><symbol id="a"><path fill="transparent" d="M0 0h116v31H0z"/></symbol><symbol id="b"><path fill="#6f7683" d="M0 0h1.102v2.171H0z"/></symbol></defs><path class="a" d="M0 0h116v65.13H0z"/><g style="animation-duration:12.718243s;animation-iteration-count:infinite;animation-name:m;animation-timing-function:steps(1,end)"><svg width="2088"><svg><use xlink:href="#a"/><use xlink:href="#b" x="-.004"/></svg><svg x="116"><use xlink:href="#a"/><use xlink:href="#b" x="-.004" y="2.146"/><use xlink:href="#1"/></svg><svg x="232"><use xlink:href="#a"/><use xlink:href="#b" x="-.004" y="4.317"/><use xlink:href="#1"/><use xlink:href="#2" y="2.171"/></svg><svg x="348"><use xlink:href="#a"/><use xlink:href="#b" x="-.004" y="6.488"/><use xlink:href="#1"/><use xlink:href="#2" y="2.171"/></svg><svg x="464"><use xlink:href="#a"/><use xlink:href="#b" x="-.004" y="8.659"/><use xlink:href="#1"/><use xlink:href="#2" y="2.171"/><use xlink:href="#3" y="6.513"/></svg><svg x="580"><use xlink:href="#a"/><use xlink:href="#b" x="-.004" y="19.514"/><use xlink:href="#1"/><use xlink:href="#2" y="2.171"/><use xlink:href="#3" y="6.513"/><use xlink:href="#4" y="8.684"/><use xlink:href="#5" y="10.855"/><use xlink:href="#6" y="13.026"/><use xlink:href="#7" y="15.197"/><use xlink:href="#8" y="17.368"/></svg><svg x="696"><use xlink:href="#a"/><use xlink:href="#b" x="-.004" y="30.369"/><use xlink:href="#1"/><use xlink:href="#2" y="2.171"/><use xlink:href="#3" y="6.513"/><use xlink:href="#4" y="8.684"/><use xlink:href="#5" y="10.855"/><use xlink:href="#6" y="13.026"/><use xlink:href="#7" y="15.197"/><use xlink:href="#8" y="17.368"/><use xlink:href="#9" y="19.539"/><use xlink:href="#10" y="21.71"/><use xlink:href="#11" y="23.881"/><use xlink:href="#12" y="26.052"/><use xlink:href="#13" y="28.223"/></svg><svg x="812"><use xlink:href="#a"/><use xlink:href="#b" x="-.004" y="32.54"/><use xlink:href="#1"/><use xlink:href="#2" y="2.171"/><use xlink:href="#3" y="6.513"/><use xlink:href="#4" y="8.684"/><use xlink:href="#5" y="10.855"/><use xlink:href="#6" y="13.026"/><use xlink:href="#7" y="15.197"/><use xlink:href="#8" y="17.368"/><use xlink:href="#9" y="19.539"/><use xlink:href="#10" y="21.71"/><use xlink:href="#11" y="23.881"/><use xlink:href="#12" y="26.052"/><use xlink:href="#13" y="28.223"/></svg><svg x="928"><use xlink:href="#a"/><use xlink:href="#b" x="-.004" y="34.711"/><use xlink:href="#1"/><use xlink:href="#2" y="2.171"/><use xlink:href="#3" y="6.513"/><use xlink:href="#4" y="8.684"/><use xlink:href="#5" y="10.855"/><use xlink:href="#6" y="13.026"/><use xlink:href="#7" y="15.197"/><use xlink:href="#8" y="17.368"/><use xlink:href="#9" y="19.539"/><use xlink:href="#10" y="21.71"/><use xlink:href="#11" y="23.881"/><use xlink:href="#12" y="26.052"/><use xlink:href="#13" y="28.223"/><use xlink:href="#14" y="32.565"/></svg><svg x="1044"><use xlink:href="#a"/><use xlink:href="#b" x="-.004" y="36.882"/><use xlink:href="#1"/><use xlink:href="#2" y="2.171"/><use xlink:href="#3" y="6.513"/><use xlink:href="#4" y="8.684"/><use xlink:href="#5" y="10.855"/><use xlink:href="#6" y="13.026"/><use xlink:href="#7" y="15.197"/><use xlink:href="#8" y="17.368"/><use xlink:href="#9" y="19.539"/><use xlink:href="#10" y="21.71"/><use xlink:href="#11" y="23.881"/><use xlink:href="#12" y="26.052"/><use xlink:href="#13" y="28.223"/><use xlink:href="#14" y="32.565"/><use xlink:href="#15" y="34.736"/></svg><svg x="1160"><use xlink:href="#a"/><use xlink:href="#b" x="-.004" y="39.053"/><use xlink:href="#1"/><use xlink:href="#2" y="2.171"/><use xlink:href="#3" y="6.513"/><use xlink:href="#4" y="8.684"/><use xlink:href="#5" y="10.855"/><use xlink:href="#6" y="13.026"/><use xlink:href="#7" y="15.197"/><use xlink:href="#8" y="17.368"/><use xlink:href="#9" y="19.539"/><use xlink:href="#10" y="21.71"/><use xlink:href="#11" y="23.881"/><use xlink:href="#12" y="26.052"/><use xlink:href="#13" y="28.223"/><use xlink:href="#14" y="32.565"/><use xlink:href="#15" y="34.736"/></svg><svg x="1276"><use xlink:href="#a"/><use xlink:href="#b" x="-.004" y="41.224"/><use xlink:href="#1"/><use xlink:href="#2" y="2.171"/><use xlink:href="#3" y="6.513"/><use xlink:href="#4" y="8.684"/><use xlink:href="#5" y="10.855"/><use xlink:href="#6" y="13.026"/><use xlink:href="#7" y="15.197"/><use xlink:href="#8" y="17.368"/><use xlink:href="#9" y="19.539"/><use xlink:href="#10" y="21.71"/><use xlink:href="#11" y="23.881"/><use xlink:href="#12" y="26.052"/><use xlink:href="#13" y="28.223"/><use xlink:href="#14" y="32.565"/><use xlink:href="#15" y="34.736"/><use xlink:href="#16" y="39.078"/></svg><svg x="1392"><use xlink:href="#a"/><use xlink:href="#b" x="-.004" y="45.566"/><use xlink:href="#1"/><use xlink:href="#2" y="2.171"/><use xlink:href="#3" y="6.513"/><use xlink:href="#4" y="8.684"/><use xlink:href="#5" y="10.855"/><use xlink:href="#6" y="13.026"/><use xlink:href="#7" y="15.197"/><use xlink:href="#8" y="17.368"/><use xlink:href="#9" y="19.539"/><use xlink:href="#10" y="21.71"/><use xlink:href="#11" y="23.881"/><use xlink:href="#12" y="26.052"/><use xlink:href="#13" y="28.223"/><use xlink:href="#14" y="32.565"/><use xlink:href="#15" y="34.736"/><use xlink:href="#16" y="39.078"/><use xlink:href="#17" y="41.249"/><use xlink:href="#18" y="43.42"/></svg><svg x="1508"><use xlink:href="#a"/><use xlink:href="#b" x="-.004" y="54.25"/><use xlink:href="#1"/><use xlink:href="#2" y="2.171"/><use xlink:href="#3" y="6.513"/><use xlink:href="#4" y="8.684"/><use xlink:href="#5" y="10.855"/><use xlink:href="#6" y="13.026"/><use xlink:href="#7" y="15.197"/><use xlink:href="#8" y="17.368"/><use xlink:href="#9" y="19.539"/><use xlink:href="#10" y="21.71"/><use xlink:href="#11" y="23.881"/><use xlink:href="#12" y="26.052"/><use xlink:href="#13" y="28.223"/><use xlink:href="#14" y="32.565"/><use xlink:href="#15" y="34.736"/><use xlink:href="#16" y="39.078"/><use xlink:href="#17" y="41.249"/><use xlink:href="#18" y="43.42"/><use xlink:href="#19" y="45.591"/><use xlink:href="#20" y="47.762"/><use xlink:href="#21" y="52.104"/></svg><svg x="1624"><use xlink:href="#a"/><use xlink:href="#b" x="-.004" y="56.421"/><use xlink:href="#1"/><use xlink:href="#2" y="2.171"/><use xlink:href="#3" y="6.513"/><use xlink:href="#4" y="8.684"/><use xlink:href="#5" y="10.855"/><use xlink:href="#6" y="13.026"/><use xlink:href="#7" y="15.197"/><use xlink:href="#8" y="17.368"/><use xlink:href="#9" y="19.539"/><use xlink:href="#10" y="21.71"/><use xlink:href="#11" y="23.881"/><use xlink:href="#12" y="26.052"/><use xlink:href="#13" y="28.223"/><use xlink:href="#14" y="32.565"/><use xlink:href="#15" y="34.736"/><use xlink:href="#16" y="39.078"/><use xlink:href="#17" y="41.249"/><use xlink:href="#18" y="43.42"/><use xlink:href="#19" y="45.591"/><use xlink:href="#20" y="47.762"/><use xlink:href="#21" y="52.104"/></svg><svg x="1740"><use xlink:href="#a"/><use xlink:href="#b" x="-.004" y="58.592"/><use xlink:href="#1"/><use xlink:href="#2" y="2.171"/><use xlink:href="#3" y="6.513"/><use xlink:href="#4" y="8.684"/><use xlink:href="#5" y="10.855"/><use xlink:href="#6" y="13.026"/><use xlink:href="#7" y="15.197"/><use xlink:href="#8" y="17.368"/><use xlink:href="#9" y="19.539"/><use xlink:href="#10" y="21.71"/><use xlink:href="#11" y="23.881"/><use xlink:href="#12" y="26.052"/><use xlink:href="#13" y="28.223"/><use xlink:href="#14" y="32.565"/><use xlink:href="#15" y="34.736"/><use xlink:href="#16" y="39.078"/><use xlink:href="#17" y="41.249"/><use xlink:href="#18" y="43.42"/><use xlink:href="#19" y="45.591"/><use xlink:href="#20" y="47.762"/><use xlink:href="#21" y="52.104"/><use xlink:href="#22" y="56.446"/></svg><svg x="1856"><use xlink:href="#a"/><use xlink:href="#b" x="-.004" y="65.105"/><use xlink:href="#3" y="2.171"/><use xlink:href="#4" y="4.342"/><use xlink:href="#5" y="6.513"/><use xlink:href="#6" y="8.684"/><use xlink:href="#7" y="10.855"/><use xlink:href="#8" y="13.026"/><use xlink:href="#9" y="15.197"/><use xlink:href="#10" y="17.368"/><use xlink:href="#11" y="19.539"/><use xlink:href="#12" y="21.71"/><use xlink:href="#13" y="23.881"/><use xlink:href="#14" y="28.223"/><use xlink:href="#15" y="30.394"/><use xlink:href="#16" y="34.736"/><use xlink:href="#17" y="36.907"/><use xlink:href="#18" y="39.078"/><use xlink:href="#19" y="41.249"/><use xlink:href="#20" y="43.42"/><use xlink:href="#21" y="47.762"/><use xlink:href="#22" y="52.104"/><use xlink:href="#23" y="54.275"/><use xlink:href="#24" y="56.446"/><use xlink:href="#25" y="58.617"/><use xlink:href="#26" y="60.788"/><use xlink:href="#27" y="62.959"/></svg><svg x="1972"><use xlink:href="#a"/><use xlink:href="#b" x="-.004" y="65.105"/><use xlink:href="#3"/><use xlink:href="#4" y="2.171"/><use xlink:href="#5" y="4.342"/><use xlink:href="#6" y="6.513"/><use xlink:href="#7" y="8.684"/><use xlink:href="#8" y="10.855"/><use xlink:href="#9" y="13.026"/><use xlink:href="#10" y="15.197"/><use xlink:href="#11" y="17.368"/><use xlink:href="#12" y="19.539"/><use xlink:href="#13" y="21.71"/><use xlink:href="#14" y="26.052"/><use xlink:href="#15" y="28.223"/><use xlink:href="#16" y="32.565"/><use xlink:href="#17" y="34.736"/><use xlink:href="#18" y="36.907"/><use xlink:href="#19" y="39.078"/><use xlink:href="#20" y="41.249"/><use xlink:href="#21" y="45.591"/><use xlink:href="#22" y="49.933"/><use xlink:href="#23" y="52.104"/><use xlink:href="#24" y="54.275"/><use xlink:href="#25" y="56.446"/><use xlink:href="#26" y="58.617"/><use xlink:href="#27" y="60.788"/></svg></svg></g></g></svg></svg>